<?xml version="1.0" encoding="UTF-8"?>
<!DOCTYPE svg PUBLIC "-//W3C//DTD SVG 1.1//EN" "http://www.w3.org/Graphics/SVG/1.1/DTD/svg11.dtd">
<svg xmlns="http://www.w3.org/2000/svg" version="1.1" width="314px" height="244px" style="shape-rendering:geometricPrecision; text-rendering:geometricPrecision; image-rendering:optimizeQuality; fill-rule:evenodd; clip-rule:evenodd" xmlns:xlink="http://www.w3.org/1999/xlink">
<g><path style="opacity:1" fill="#fcfcfc" d="M -0.5,-0.5 C 104.167,-0.5 208.833,-0.5 313.5,-0.5C 313.5,80.8333 313.5,162.167 313.5,243.5C 208.833,243.5 104.167,243.5 -0.5,243.5C -0.5,162.167 -0.5,80.8333 -0.5,-0.5 Z"/></g>
<g><path style="opacity:1" fill="#010101" d="M 53.5,2.5 C 120.167,2.5 186.833,2.5 253.5,2.5C 253.5,13.1667 253.5,23.8333 253.5,34.5C 186.833,34.5 120.167,34.5 53.5,34.5C 53.5,23.8333 53.5,13.1667 53.5,2.5 Z"/></g>
<g><path style="opacity:1" fill="#787878" d="M 53.5,2.5 C 120.331,1.50084 187.331,1.16751 254.5,1.5C 254.5,12.8333 254.5,24.1667 254.5,35.5C 187.331,35.8325 120.331,35.4992 53.5,34.5C 120.167,34.5 186.833,34.5 253.5,34.5C 253.5,23.8333 253.5,13.1667 253.5,2.5C 186.833,2.5 120.167,2.5 53.5,2.5 Z"/></g>
<g><path style="opacity:1" fill="#e4e4e4" d="M 68.5,14.5 C 74.4877,14.664 75.821,17.164 72.5,22C 66.4034,22.1475 65.0701,19.6475 68.5,14.5 Z"/></g>
<g><path style="opacity:1" fill="#ececec" d="M 94.5,14.5 C 99.2624,15.0925 100.596,17.5925 98.5,22C 94.7983,23.3927 92.7983,22.226 92.5,18.5C 92.8029,16.8857 93.4695,15.5523 94.5,14.5 Z"/></g>
<g><path style="opacity:1" fill="#e5e5e5" d="M 119.5,14.5 C 125.501,14.7414 126.834,17.2414 123.5,22C 117.403,22.1475 116.07,19.6475 119.5,14.5 Z"/></g>
<g><path style="opacity:1" fill="#070707" d="M 53.5,42.5 C 120.167,42.5 186.833,42.5 253.5,42.5C 253.5,60.5 253.5,78.5 253.5,96.5C 249.5,96.5 245.5,96.5 241.5,96.5C 241.667,83.1625 241.5,69.8292 241,56.5C 240.617,55.944 240.117,55.6107 239.5,55.5C 182.166,55.3333 124.832,55.5 67.5,56C 66.7476,56.6708 66.4142,57.5041 66.5,58.5C 65.5023,83.3278 65.169,108.328 65.5,133.5C 64.5,133.5 63.5,133.5 62.5,133.5C 59.5448,132.841 56.5448,132.508 53.5,132.5C 53.5,102.5 53.5,72.5 53.5,42.5 Z"/></g>
<g><path style="opacity:1" fill="#868686" d="M 53.5,42.5 C 120.331,41.5008 187.331,41.1675 254.5,41.5C 254.83,60.0076 254.497,78.3409 253.5,96.5C 253.5,78.5 253.5,60.5 253.5,42.5C 186.833,42.5 120.167,42.5 53.5,42.5 Z"/></g>
<g><path style="opacity:1" fill="#616161" d="M 233.5,96.5 C 233.5,85.1667 233.5,73.8333 233.5,62.5C 180.167,62.5 126.833,62.5 73.5,62.5C 73.5,87.5 73.5,112.5 73.5,137.5C 72.5023,112.339 72.1689,87.0055 72.5,61.5C 126.5,61.5 180.5,61.5 234.5,61.5C 234.828,73.3453 234.495,85.012 233.5,96.5 Z"/></g>
<g><path style="opacity:1" fill="#050505" d="M 233.5,96.5 C 231.983,96.5106 230.816,97.1772 230,98.5C 229.627,104.57 228.793,110.57 227.5,116.5C 220.203,119.481 213.536,123.481 207.5,128.5C 201.369,125.402 195.036,123.235 188.5,122C 185.5,127 182.5,132 179.5,137C 144.168,137.5 108.835,137.667 73.5,137.5C 73.5,112.5 73.5,87.5 73.5,62.5C 126.833,62.5 180.167,62.5 233.5,62.5C 233.5,73.8333 233.5,85.1667 233.5,96.5 Z"/></g>
<g><path style="opacity:1" fill="#7f7f7f" d="M 239.5,55.5 C 240.117,55.6107 240.617,55.944 241,56.5C 241.5,69.8292 241.667,83.1625 241.5,96.5C 240.8,82.9618 240.133,69.2951 239.5,55.5 Z"/></g>
<g><path style="opacity:1" fill="#222222" d="M 66.5,58.5 C 66.5,83.8333 66.5,109.167 66.5,134.5C 64.901,134.768 63.5676,134.434 62.5,133.5C 63.5,133.5 64.5,133.5 65.5,133.5C 65.169,108.328 65.5023,83.3278 66.5,58.5 Z"/></g>
<g><path style="opacity:1" fill="#fdfdfd" d="M 88.5,74.5 C 131.835,74.3333 175.168,74.5 218.5,75C 219.833,76.6667 219.833,78.3333 218.5,80C 175.167,80.6667 131.833,80.6667 88.5,80C 87.2475,78.1722 87.2475,76.3388 88.5,74.5 Z"/></g>
<g><path style="opacity:1" fill="#eeeeee" d="M 88.5,96.5 C 131.835,96.3333 175.168,96.5 218.5,97C 219.833,99 219.833,101 218.5,103C 175.5,103.667 132.5,103.667 89.5,103C 87.3162,101.102 86.9829,98.9358 88.5,96.5 Z"/></g>
<g><path style="opacity:1" fill="#070707" d="M 256.5,240.5 C 249.833,240.5 243.167,240.5 236.5,240.5C 236.802,237.941 236.468,235.607 235.5,233.5C 236.154,229.161 235.154,225.327 232.5,222C 223.438,219.304 215.438,214.804 208.5,208.5C 203.283,210.358 198.116,212.358 193,214.5C 192.228,214.355 191.561,214.022 191,213.5C 188.167,208.5 185.333,203.5 182.5,198.5C 186.54,194.296 191.04,190.629 196,187.5C 195.621,182.204 195.121,176.871 194.5,171.5C 194.627,167.07 195.294,162.737 196.5,158.5C 191.945,154.106 187.278,149.94 182.5,146C 185.24,140.521 188.24,135.187 191.5,130C 196.272,131.037 200.939,132.704 205.5,135C 207.167,135.667 208.833,135.667 210.5,135C 217.621,128.712 225.621,123.879 234.5,120.5C 235.167,115.167 235.833,109.833 236.5,104.5C 243.468,103.503 250.468,103.17 257.5,103.5C 257.206,109.815 257.872,115.982 259.5,122C 265.067,123.783 270.401,126.117 275.5,129C 278.432,131.614 281.599,133.781 285,135.5C 290.461,133.235 295.961,131.402 301.5,130C 303.667,133.5 305.833,137 308,140.5C 309.59,142.65 310.257,144.983 310,147.5C 305.821,150.257 301.821,153.257 298,156.5C 299.162,166.237 298.662,175.903 296.5,185.5C 296.529,187.029 297.196,188.196 298.5,189C 302.956,191.626 306.956,194.793 310.5,198.5C 307.626,203.749 304.626,208.915 301.5,214C 295.838,213.002 290.338,211.168 285,208.5C 277.102,214.784 268.435,219.784 259,223.5C 258.025,229.156 257.192,234.823 256.5,240.5 Z"/></g>
<g><path style="opacity:1" fill="#f5f5f5" d="M 241.5,133.5 C 262.273,133.149 276.439,142.482 284,161.5C 287.113,178.838 281.947,193.005 268.5,204C 247.959,215.2 230.125,212.033 215,194.5C 202.629,171.486 207.129,152.653 228.5,138C 232.846,136.164 237.179,134.664 241.5,133.5 Z"/></g>
<g><path style="opacity:1" fill="#070707" d="M 47.5,138.5 C 64.5005,139.501 78.8338,146.168 90.5,158.5C 85.1929,163.472 79.8595,168.472 74.5,173.5C 66.8424,166.505 57.8424,162.505 47.5,161.5C 47.5,153.833 47.5,146.167 47.5,138.5 Z"/></g>
<g><path style="opacity:1" fill="#030303" d="M 239.5,140.5 C 244.167,140.5 248.833,140.5 253.5,140.5C 253.5,161.167 253.5,181.833 253.5,202.5C 234.309,205.658 221.809,197.991 216,179.5C 213.06,165.65 217.227,154.483 228.5,146C 232.259,144.121 235.925,142.287 239.5,140.5 Z"/></g>
<g><path style="opacity:1" fill="#0b0b0b" d="M 37.5,145.5 C 38.5,145.5 39.5,145.5 40.5,145.5C 40.6658,150.179 40.4992,154.845 40,159.5C 17.1486,170.221 10.8153,187.221 21,210.5C 23.847,214.011 26.6804,217.511 29.5,221C 27.7432,225.241 25.4098,229.074 22.5,232.5C -1.22181,212.177 -4.72181,188.844 12,162.5C 18.8391,154.176 27.3391,148.509 37.5,145.5 Z"/></g>
<g><path style="opacity:1" fill="#020202" d="M 178.5,205.5 C 153.477,206.157 128.811,205.49 104.5,203.5C 106.962,188.812 104.296,175.145 96.5,162.5C 97.7113,161.126 98.7113,159.626 99.5,158C 95.8457,153.012 91.5124,148.679 86.5,145C 116.167,144.333 145.833,144.333 175.5,145C 174.446,146.388 174.28,147.888 175,149.5C 179.333,152.833 183.667,156.167 188,159.5C 188.832,168.186 188.665,176.853 187.5,185.5C 183.422,188.623 179.255,191.623 175,194.5C 174.333,196.167 174.333,197.833 175,199.5C 176.431,201.364 177.597,203.364 178.5,205.5 Z"/></g>
<g><path style="opacity:1" fill="#0d0d0d" d="M 98.5,188.5 C 93.8333,188.5 89.1667,188.5 84.5,188.5C 84.7373,187.209 84.404,186.209 83.5,185.5C 82.347,182.233 81.847,178.9 82,175.5C 85.3132,173.021 88.4798,170.355 91.5,167.5C 94.1437,171.121 95.977,175.121 97,179.5C 97.9533,182.432 98.4533,185.432 98.5,188.5 Z"/></g>
<g><path style="opacity:1" fill="#040404" d="M 56.5,170.5 C 58.5932,171.045 60.5932,171.878 62.5,173C 66.9465,176.301 71.4465,179.468 76,182.5C 78.1199,190.346 77.6199,198.012 74.5,205.5C 67.8333,205.5 61.1667,205.5 54.5,205.5C 53.8549,193.452 54.5216,181.785 56.5,170.5 Z"/></g>
<g><path style="opacity:1" fill="#2a2a2a" d="M 56.5,170.5 C 54.5216,181.785 53.8549,193.452 54.5,205.5C 61.1667,205.5 67.8333,205.5 74.5,205.5C 67.6866,206.491 60.6866,206.825 53.5,206.5C 53.5,194.167 53.5,181.833 53.5,169.5C 54.791,169.263 55.791,169.596 56.5,170.5 Z"/></g>
<g><path style="opacity:1" fill="#474747" d="M 83.5,185.5 C 84.404,186.209 84.7373,187.209 84.5,188.5C 89.1667,188.5 93.8333,188.5 98.5,188.5C 93.6946,189.487 88.6946,189.821 83.5,189.5C 83.5,188.167 83.5,186.833 83.5,185.5 Z"/></g>
<g><path style="opacity:1" fill="#0a0a0a" d="M 83.5,196.5 C 88.5,196.5 93.5,196.5 98.5,196.5C 97.3663,210.3 91.3663,221.3 80.5,229.5C 77.275,226.44 74.6083,222.94 72.5,219C 79.2281,213.043 82.8948,205.543 83.5,196.5 Z"/></g>
<g><path style="opacity:1" fill="#4d4d4d" d="M 104.5,203.5 C 128.811,205.49 153.477,206.157 178.5,205.5C 153.672,206.498 128.672,206.831 103.5,206.5C 103.263,205.209 103.596,204.209 104.5,203.5 Z"/></g>
<g><path style="opacity:1" fill="#090909" d="M 63.5,223.5 C 64.8734,223.343 66.2068,223.51 67.5,224C 70.0796,227.158 72.4129,230.492 74.5,234C 66.7229,238.824 58.2229,240.991 49,240.5C 44.4317,240.523 39.9317,240.023 35.5,239C 33.0031,238.588 31.0031,237.422 29.5,235.5C 31.3001,231.871 33.3001,228.371 35.5,225C 40.2061,225.928 45.0394,226.428 50,226.5C 54.9656,226.964 59.4656,225.964 63.5,223.5 Z"/></g>
<g><path style="opacity:1" fill="#848484" d="M 235.5,233.5 C 236.468,235.607 236.802,237.941 236.5,240.5C 243.167,240.5 249.833,240.5 256.5,240.5C 249.687,241.491 242.687,241.825 235.5,241.5C 235.5,238.833 235.5,236.167 235.5,233.5 Z"/></g>
</svg>
